<svg width="120" height="40" viewBox="0 0 120 40" xmlns="http://www.w3.org/2000/svg">
  <defs>
    <linearGradient id="logoGradient" x1="0%" y1="0%" x2="100%" y2="0%">
      <stop offset="0%" style="stop-color:#6d28d9;stop-opacity:1" />
      <stop offset="100%" style="stop-color:#9333ea;stop-opacity:1" />
    </linearGradient>
  </defs>
  
  <!-- Background circle -->
  <circle cx="20" cy="20" r="18" fill="url(#logoGradient)" stroke="#fcd34d" stroke-width="2"/>
  
  <!-- Magic wand -->
  <path d="M12 8 L28 8 L28 10 L12 10 Z" fill="#fcd34d"/>
  <circle cx="28" cy="9" r="2" fill="#fcd34d"/>
  
  <!-- Stars -->
  <path d="M8 12 L10 16 L14 16 L11 19 L12 23 L8 20 L4 23 L5 19 L2 16 L6 16 Z" fill="#fcd34d"/>
  <path d="M32 12 L34 16 L38 16 L35 19 L36 23 L32 20 L28 23 L29 19 L26 16 L30 16 Z" fill="#fcd34d"/>
  
  <!-- Text -->
  <text x="45" y="16" font-family="Arial, sans-serif" font-size="12" font-weight="bold" fill="#5e2ca5">Demo</text>
  <text x="45" y="28" font-family="Arial, sans-serif" font-size="12" font-weight="bold" fill="#fcd34d">Mojo</text>
</svg>
